<svg xmlns="http://www.w3.org/2000/svg" xmlns:xlink="http://www.w3.org/1999/xlink" viewBox="0 0 596.28 596.28"><defs><style>.cls-1{stroke-miterlimit:10;fill:url(#Ads覺z_degrade_35);stroke:url(#Ads覺z_degrade_31);}.cls-2{fill:#1d1d1b;}</style><linearGradient id="Ads覺z_degrade_35" x1="0.5" y1="298.14" x2="595.78" y2="298.14" gradientUnits="userSpaceOnUse"><stop offset="0" stop-color="#ffef26"/><stop offset="0.02" stop-color="#ffea21"/><stop offset="0.11" stop-color="#fed70f"/><stop offset="0.2" stop-color="#fdcc04"/><stop offset="0.31" stop-color="#fdc800"/><stop offset="0.62" stop-color="#f18f34"/><stop offset="0.82" stop-color="#e95f32"/><stop offset="1" stop-color="#e3312d"/></linearGradient><linearGradient id="Ads覺z_degrade_31" y1="298.14" x2="596.28" y2="298.14" gradientUnits="userSpaceOnUse"><stop offset="0" stop-color="#fff"/><stop offset="1"/></linearGradient></defs><g id="Layer_2" data-name="Layer 2"><g id="katman_1" data-name="katman 1"><circle class="cls-1" cx="298.14" cy="298.14" r="297.64"/><path class="cls-2" d="M142.11,301.62v84.95q0,24.46,1.55,36.35t5.74,19.56a27.55,27.55,0,0,0,8.43,10q4.8,3.24,12.62,4v5.52H84.21V456.4q7.82-.72,12.62-4a27.55,27.55,0,0,0,8.43-10q4.32-7.68,5.81-19.44t1.48-36.47V209.71q0-24.72-1.48-36.48t-5.81-19.43q-3.65-7-8.5-10.08a27.84,27.84,0,0,0-12.55-3.84v-5.52h65.05q16.34,0,21.46.24,20.92,1.68,32.8,10.08,13.36,9.6,20.72,28.67t7.36,44.28q0,37.43-15.93,60a49.76,49.76,0,0,1-10.73,11,69.26,69.26,0,0,1-15.73,8.16q8.1,6,12,12.48a62.52,62.52,0,0,1,5.67,12.59q2.57,7.56,7.69,26.76,12,43.92,18.15,64.19t10.33,29.4q3.38,7.44,6.54,10.32a17,17,0,0,0,8.71,3.84v5.52H213.51q-3.37-13.2-4.32-16.8L199.74,407q-8.51-34.31-17.14-60.71Q174,320.09,166.81,310.5a22.41,22.41,0,0,0-7.83-6.84,23.28,23.28,0,0,0-10.26-2Zm0-5.28h5.13q16.74,0,24-3.36t13.56-13.92q14.18-24,14.17-59.51a148.59,148.59,0,0,0-4.11-35.64q-4.12-16.68-11.41-27.47a30.89,30.89,0,0,0-13.5-11.4q-7.83-3.24-22.27-3.24h-5.53Z"/><path class="cls-2" d="M261.16,339.77h60.19v36H261.16Z"/><path class="cls-2" d="M376.56,461.92V456.4a27.8,27.8,0,0,0,12.55-3.84q4.86-3.12,8.64-10.08,4.19-7.68,5.67-19.44t1.48-36.47l.14-46.8a121.84,121.84,0,0,0-2.3-22.31q-2.57-14.16-10.53-35.52l-34.95-93.35-6.21-16.8q-6.89-18.24-13.5-24.95a20.6,20.6,0,0,0-6.75-5,31.13,31.13,0,0,0-9.45-1.92v-5.52h88v5.52q-11.21,1.2-14.31,3.6-7.56,5.76-7.56,20.87a53.31,53.31,0,0,0,1.69,12.48,178.23,178.23,0,0,0,5.46,17.52L431.22,296.1l31.31-86.87,3.51-9.84A80.68,80.68,0,0,0,471,172q0-15.36-5.54-23.75a17.55,17.55,0,0,0-15.52-8.4v-5.52h62.09v5.52q-7,1.44-10.8,4.2t-7.69,9q-9.18,15.35-20.38,45.83l-30.78,83.51q-5.54,14.88-6.74,21.84t-1.22,23.51v58.8q0,25.67,1.42,36.83a53.65,53.65,0,0,0,5.73,19.08Q449,456.4,462.8,456.4v5.52Z"/></g></g></svg>