<?xml version="1.0" encoding="utf-8"?>
<!-- Generator: Adobe Illustrator 25.2.1, SVG Export Plug-In . SVG Version: 6.00 Build 0)  -->
<svg version="1.1" id="katman_1" xmlns="http://www.w3.org/2000/svg" xmlns:xlink="http://www.w3.org/1999/xlink" x="0px" y="0px"
	 viewBox="0 0 595.28 841.89" style="enable-background:new 0 0 595.28 841.89;" xml:space="preserve">
<style type="text/css">
	.st0{fill:url(#SVGID_1_);stroke:url(#SVGID_2_);stroke-miterlimit:10;}
</style>
<linearGradient id="SVGID_1_" gradientUnits="userSpaceOnUse" x1="85.0394" y1="420.9449" x2="510.2362" y2="420.9449">
	<stop  offset="0" style="stop-color:#FFEF26"/>
	<stop  offset="0.0646" style="stop-color:#FFE000"/>
	<stop  offset="0.1415" style="stop-color:#FFD300"/>
	<stop  offset="0.2206" style="stop-color:#FECB00"/>
	<stop  offset="0.305" style="stop-color:#FDC800"/>
	<stop  offset="0.6163" style="stop-color:#F18F34"/>
	<stop  offset="0.8193" style="stop-color:#E95F32"/>
	<stop  offset="1" style="stop-color:#E3312D"/>
</linearGradient>
<linearGradient id="SVGID_2_" gradientUnits="userSpaceOnUse" x1="84.5394" y1="420.9449" x2="510.7362" y2="420.9449">
	<stop  offset="0" style="stop-color:#FFFFFF"/>
	<stop  offset="1" style="stop-color:#000000"/>
</linearGradient>
<circle class="st0" cx="297.64" cy="420.94" r="212.6"/>
<g>
	<path d="M186.19,423.43v60.68c0,11.66,0.37,20.31,1.11,25.97c0.74,5.66,2.1,10.31,4.1,13.97c1.74,3.2,3.74,5.57,6.03,7.11
		s5.29,2.49,9.01,2.83v3.94h-61.61v-3.94c3.73-0.34,6.73-1.29,9.01-2.83s4.29-3.91,6.03-7.11c2.06-3.66,3.44-8.28,4.15-13.88
		c0.71-5.6,1.06-14.28,1.06-26.05V357.78c0-11.77-0.35-20.45-1.06-26.05c-0.71-5.6-2.09-10.23-4.15-13.88
		c-1.74-3.31-3.76-5.71-6.07-7.2c-2.31-1.49-5.3-2.4-8.97-2.74v-3.94h46.47c7.78,0,12.89,0.06,15.33,0.17
		c9.96,0.8,17.77,3.2,23.43,7.2c6.36,4.57,11.3,11.4,14.8,20.48s5.25,19.63,5.25,31.62c0,17.83-3.79,32.11-11.38,42.85
		c-2.31,3.2-4.87,5.83-7.66,7.88s-6.54,4-11.23,5.83c3.86,2.86,6.72,5.83,8.58,8.91c1.48,2.4,2.83,5.4,4.05,9
		c1.22,3.6,3.05,9.97,5.5,19.11c5.72,20.91,10.04,36.2,12.97,45.85c2.92,9.66,5.38,16.66,7.38,21c1.61,3.54,3.17,6,4.68,7.37
		c1.51,1.37,3.58,2.29,6.22,2.74v3.94h-32.01c-1.61-6.28-2.64-10.28-3.09-12l-6.75-27.25c-4.05-16.34-8.13-30.8-12.24-43.37
		c-4.11-12.46-7.87-20.97-11.28-25.54c-1.74-2.29-3.6-3.91-5.59-4.89c-1.99-0.97-4.43-1.46-7.33-1.46H186.19z M186.19,419.66h3.66
		c7.97,0,13.67-0.8,17.11-2.4c3.44-1.6,6.67-4.91,9.69-9.94c6.75-11.43,10.12-25.6,10.12-42.51c0-9.03-0.98-17.51-2.94-25.45
		s-4.68-14.48-8.15-19.63c-2.7-3.89-5.91-6.6-9.64-8.14s-9.03-2.31-15.91-2.31h-3.95V419.66z"/>
	<path d="M271.22,450.68h43v25.71h-43V450.68z"/>
	<path d="M353.65,537.93v-3.94c3.66-0.34,6.65-1.26,8.97-2.74c2.31-1.49,4.37-3.89,6.17-7.2c1.99-3.66,3.34-8.28,4.05-13.88
		c0.71-5.6,1.06-14.28,1.06-26.05l0.1-33.42c0-4.8-0.55-10.11-1.64-15.94c-1.22-6.74-3.73-15.2-7.52-25.37l-24.97-66.68l-4.43-12
		c-3.28-8.68-6.49-14.63-9.64-17.83c-1.61-1.71-3.21-2.91-4.82-3.6s-3.86-1.14-6.75-1.37v-3.94h62.86v3.94
		c-5.33,0.57-8.74,1.43-10.22,2.57c-3.6,2.74-5.4,7.71-5.4,14.91c0,2.63,0.4,5.6,1.21,8.91s2.1,7.48,3.9,12.51l26.13,72.68
		l22.37-62.05l2.51-7.03c2.38-6.63,3.57-13.14,3.57-19.54c0-7.31-1.32-12.97-3.95-16.97c-2.64-4-6.33-6-11.09-6v-3.94h44.35v3.94
		c-3.34,0.69-5.91,1.69-7.71,3c-1.8,1.31-3.63,3.46-5.5,6.43c-4.37,7.31-9.22,18.23-14.56,32.74l-21.98,59.65
		c-2.64,7.08-4.24,12.28-4.82,15.6c-0.58,3.31-0.87,8.91-0.87,16.8v41.99c0,12.23,0.34,21,1.01,26.31c0.67,5.31,2.04,9.86,4.1,13.63
		c3.54,6.63,8.58,9.94,15.14,9.94v3.94H353.65z"/>
</g>
<g>
</g>
<g>
</g>
<g>
</g>
<g>
</g>
<g>
</g>
<g>
</g>
</svg>
